<mxfile host="app.diagrams.net" modified="2024-04-30T14:08:14.079Z" agent="Mozilla/5.0 (Windows NT 10.0; Win64; x64) AppleWebKit/537.36 (KHTML, like Gecko) Chrome/123.0.0.0 Safari/537.36" version="24.3.1" etag="8WG7q_sNNVuRSzf1iOJh" type="github">
  <diagram name="Page-1" id="EfCYFd_UConWCgpKsSaM">
    <mxGraphModel>
      <root>
        <mxCell id="0" />
        <mxCell id="1" parent="0" />
      </root>
    </mxGraphModel>
  </diagram>
</mxfile>
